# xmcd
#
# Track frame offsets:
# 150
# 8430
# 25746
# 43240
# 58676
# 68608
# 85242
# 98544
# 111228
#
# Disc length: 2190 seconds
#
#
# Revision: 0
# Processed by: cddbd v1.5.1PL0 Copyright (c) Steve Scherf et al.
# Submitted via: FreeRIP 2.942 
#
DISCID=64088c09
DTITLE=Ill Trip - Rumored Existence
DYEAR=2002
DGENRE=Hip-Hop
TTITLE0=Proof of Life
TTITLE1=Strive
TTITLE2=Disconnect
TTITLE3=Small ft Listner
TTITLE4=Wheelhouse
TTITLE5=Pop Song 17
TTITLE6=Midnight
TTITLE7=Secret Slow Death
TTITLE8=The Engulfed Cathedral
EXTD=
EXTT0=
EXTT1=
EXTT2=
EXTT3=
EXTT4=
EXTT5=
EXTT6=
EXTT7=
EXTT8=
PLAYORDER=
